<?xml version="1.0" encoding="UTF-8" standalone="no"?>
<svg
   xmlns:dc="http://purl.org/dc/elements/1.1/"
   xmlns:cc="http://creativecommons.org/ns#"
   xmlns:rdf="http://www.w3.org/1999/02/22-rdf-syntax-ns#"
   xmlns:svg="http://www.w3.org/2000/svg"
   xmlns="http://www.w3.org/2000/svg"
   viewBox="0 0 1020.472 282.19467"
   height="282.19467"
   width="1020.472"
   xml:space="preserve"
   id="svg2"
   version="1.1"><metadata
     id="metadata8"><rdf:RDF><cc:Work
         rdf:about=""><dc:format>image/svg+xml</dc:format><dc:type
           rdf:resource="http://purl.org/dc/dcmitype/StillImage" /></cc:Work></rdf:RDF></metadata><defs
     id="defs6"><clipPath
       id="clipPath18"
       clipPathUnits="userSpaceOnUse"><path
         id="path16"
         d="M 0,211.646 H 765.354 V 0 H 0 Z" /></clipPath></defs><g
     transform="matrix(1.3333333,0,0,-1.3333333,0,282.19467)"
     id="g10"><g
       id="g12"><g
         clip-path="url(#clipPath18)"
         id="g14"><g
           transform="translate(229.6929,132.0473)"
           id="g20"><path
             id="path22"
             style="fill:#000000;fill-opacity:1;fill-rule:nonzero;stroke:none"
             d="M 0,0 C -4.38,12.519 -8.613,24.615 -13.079,37.379 -17.845,24.489 -22.323,12.378 -26.9,0 Z m 151.598,36.224 c -1.318,-3.893 -2.286,-7.296 -3.604,-10.554 -6.245,-15.435 -12.834,-30.734 -18.793,-46.279 -3.272,-8.535 -5.643,-17.429 -8.211,-26.223 -1.109,-3.798 -0.868,-3.869 -5.197,-3.644 -8.407,29.611 -21.128,57.559 -34.87,85.281 -0.691,-4.353 -1.278,-8.725 -2.09,-13.055 -2.924,-15.604 -4.65,-31.318 -4.471,-47.216 0.023,-2.06 0.081,-4.126 0.244,-6.179 0.787,-9.906 4.91,-14.505 14.649,-16.133 2.27,-0.379 3.253,-1.119 2.192,-3.403 H -3.182 c -0.052,0.939 -0.112,2.009 -0.184,3.299 2.451,0.4 4.833,0.665 7.152,1.204 1.792,0.417 3.597,0.992 5.234,1.823 2.97,1.505 4.376,4.032 3.732,7.416 -0.384,2.014 -0.883,4.028 -1.555,5.962 -2.7,7.778 -5.527,15.512 -8.21,23.295 -0.509,1.478 -1.192,2.032 -2.777,2.018 -9.121,-0.079 -18.243,-0.083 -27.364,-0.018 -1.562,0.011 -2.277,-0.502 -2.802,-1.989 -2.894,-8.207 -5.92,-16.367 -8.865,-24.556 -2.283,-6.345 -1,-9.627 5.083,-12.447 2.425,-1.124 5.053,-1.804 7.702,-2.725 v -3.277 H -65.37 v 3.169 c 0.115,0.091 0.245,0.285 0.394,0.301 8.595,0.871 13.53,6.112 16.766,13.748 10.583,24.98 21.313,49.897 31.914,74.87 0.417,0.981 0.343,2.345 0.064,3.417 -0.489,1.878 -1.314,3.667 -2.039,5.599 6.542,1.903 12.915,3.757 19.645,5.715 1.618,-4.358 3.343,-8.957 5.034,-13.568 9.567,-26.09 19.228,-52.145 28.63,-78.295 3.191,-8.875 10.516,-11.626 17.066,-11.377 4.864,0.184 8.444,3.395 10.475,7.826 1.232,2.689 2.22,5.614 2.654,8.533 2.329,15.658 4.41,31.353 6.657,47.023 1.064,7.418 2.176,14.835 3.542,22.2 0.432,2.332 -0.382,3.79 -1.834,5.188 -3.166,3.05 -6.943,4.972 -11.182,6.028 -3.016,0.752 -3.01,0.775 -2.593,4.047 h 49.744 c 0.637,-2.062 0.443,-3.424 -2.463,-3.983 -5.931,-1.142 -8.075,-4.877 -5.787,-10.515 4.959,-12.218 10.267,-24.292 15.383,-36.446 2.46,-5.846 4.807,-11.739 7.387,-18.055 0.731,1.293 1.37,2.188 1.779,3.18 7.058,17.119 14.191,34.207 21.068,51.401 2.448,6.122 1.37,7.763 -4.975,9.666 -0.89,0.267 -1.795,0.619 -2.705,0.657 -2.712,0.112 -3.508,1.536 -2.913,4.087 h 52.649 v -3.276 c -1.565,-0.297 -3.101,-0.598 -4.64,-0.88 -6.916,-1.263 -11.081,-5.672 -10.944,-12.736 0.112,-5.87 0.894,-11.765 1.839,-17.574 2.884,-17.743 5.983,-35.451 9.014,-53.17 1.319,-7.706 5.493,-12.499 13.491,-13.495 2.328,-0.289 2.321,-0.467 1.808,-3.291 H 143.47 v 2.54 c 3.19,0.687 6.376,1.285 9.517,2.067 7.539,1.876 11.301,7.322 10.068,15.053 -3.497,21.918 -7.139,43.813 -10.739,65.715 -0.083,0.504 -0.34,0.98 -0.718,2.031" /></g><g
           transform="translate(762.2324,117.1304)"
           id="g24"><path
             id="path26"
             style="fill:#000000;fill-opacity:1;fill-rule:nonzero;stroke:none"
             d="m 0,0 c 1.1,-0.837 1.971,-1.501 2.78,-2.117 -4.693,-11.5 -9.339,-22.882 -13.961,-34.208 h -94.804 c -0.058,0.983 -0.125,2.121 -0.203,3.417 1.857,0.229 3.501,0.367 5.123,0.643 7.645,1.305 11.03,5.119 11.249,12.946 0.153,5.527 0.069,11.062 0.071,16.593 0.006,16.313 0.002,32.626 -10e-4,48.939 0,1.219 10e-4,2.438 -0.042,3.656 -0.316,9.018 -4.43,13.329 -13.368,14.026 -0.908,0.071 -1.818,0.147 -2.875,0.232 v 4.046 h 94.669 V 38.767 c -0.4,-0.131 -1.343,-0.44 -2.482,-0.812 -0.352,0.684 -0.767,1.286 -0.99,1.952 -4.521,13.564 -14.038,21.016 -28.007,22.111 -8.298,0.65 -16.687,0.119 -25.279,0.119 V 24.265 c 16.482,-2.145 28.794,2.71 33.293,19.309 h 2.889 V -1.557 c -1.676,-0.621 -2.829,-0.582 -3.458,1.774 -0.696,2.597 -1.705,5.176 -2.993,7.533 -3.697,6.77 -9.641,10.313 -17.169,10.938 -4.058,0.337 -8.167,0.06 -12.524,0.06 -0.085,-0.817 -0.238,-1.615 -0.239,-2.413 -0.012,-13.968 0.004,-27.938 -0.014,-41.907 -0.002,-1.605 0.108,-2.915 2.106,-3.304 15.305,-2.977 30.176,-2.562 44.144,5.447 9.158,5.251 15.822,12.931 21.17,21.908 C -0.678,-1.123 -0.437,-0.727 0,0" /></g><g
           transform="translate(638.8057,182.3594)"
           id="g28"><path
             id="path30"
             style="fill:#000000;fill-opacity:1;fill-rule:nonzero;stroke:none"
             d="m 0,0 c 0,-4.137 -0.104,-8.9 0.029,-13.655 0.134,-4.758 0.507,-9.509 0.776,-14.28 -2.202,-0.987 -3.21,-0.484 -4.129,1.869 -5.264,13.471 -14.71,22.466 -28.99,25.29 -4.016,0.794 -8.612,0.369 -12.592,-0.755 -9.729,-2.747 -12.734,-15.002 -5.791,-22.382 4.523,-4.809 10.544,-7.22 16.297,-10.079 8.739,-4.344 17.671,-8.394 26.008,-13.431 7.722,-4.667 13.026,-11.692 14.562,-21.013 2.556,-15.512 -4.883,-28.059 -19.656,-33.195 -11.026,-3.833 -22.102,-3.242 -33.271,-0.576 -6.136,1.465 -12.326,3.057 -18.735,1.884 -1.717,-0.313 -3.381,-0.92 -5.08,-1.395 -2.043,12.011 -4.078,23.972 -6.125,36.008 1.931,0.659 3.003,0.314 3.972,-2.075 5.624,-13.849 15.518,-23.42 29.629,-28.173 7.07,-2.38 14.348,-1.69 21.442,0.379 11.887,3.468 12.836,18.298 5.868,24.755 -3.773,3.496 -8.193,6.482 -12.748,8.877 -8.066,4.242 -16.575,7.625 -24.661,11.831 -4.251,2.212 -8.281,5.074 -11.914,8.223 -8.38,7.261 -9.825,16.791 -7.702,27.175 1.994,9.747 8.298,15.429 17.486,18.11 10.5,3.064 21.126,2.795 31.782,0.839 C -15.812,2.813 -8.071,1.449 0,0" /></g><g
           transform="translate(431.126,182.0366)"
           id="g32"><path
             id="path34"
             style="fill:#000000;fill-opacity:1;fill-rule:nonzero;stroke:none"
             d="m 0,0 v 3.272 h 55.69 c -0.1,-0.973 -0.21,-2.028 -0.336,-3.258 -2.668,-0.362 -5.229,-0.683 -7.78,-1.062 -5.132,-0.762 -8.167,-3.558 -8.728,-8.713 -0.476,-4.365 -0.53,-8.79 -0.547,-13.189 -0.061,-15.467 0.209,-30.938 -0.091,-46.4 -0.299,-15.416 10.249,-23.294 22.088,-25.113 8.952,-1.376 17.709,-0.875 25.81,3.502 8.994,4.857 13.594,12.968 13.764,22.948 0.294,17.232 -0.179,34.478 -0.35,51.718 -0.008,0.836 -0.171,1.677 -0.324,2.504 -1.745,9.458 -5.173,12.633 -14.625,13.561 -0.826,0.081 -1.653,0.144 -2.626,0.229 -0.098,0.577 -0.235,1.095 -0.263,1.619 -0.03,0.545 0.046,1.096 0.075,1.631 h 39.945 V 0.004 c -2.15,-0.345 -4.32,-0.659 -6.475,-1.049 -4.872,-0.881 -7.529,-3.709 -7.969,-8.722 -0.279,-3.169 -0.385,-6.361 -0.396,-9.544 -0.049,-13.779 -0.014,-27.559 -0.049,-41.339 -0.018,-7.355 -0.72,-14.609 -3.744,-21.43 -5.447,-12.288 -15.287,-18.828 -28.065,-21.07 -11.271,-1.979 -22.497,-1.235 -33.32,2.614 -11.249,4.001 -19.933,10.94 -23.209,23.093 -0.767,2.844 -0.871,5.931 -0.887,8.908 -0.092,17.435 -0.063,34.87 -0.086,52.306 -0.002,1.216 -0.021,2.443 -0.169,3.647 C 16.487,-5.726 13.451,-2.401 6.734,-1.041 4.562,-0.601 2.349,-0.357 0,0" /></g><g
           transform="translate(46.5957,48.7309)"
           id="g36"><path
             id="path38"
             style="fill:#02666d;fill-opacity:1;fill-rule:nonzero;stroke:none"
             d="m 0,0 c 1.283,1.908 2.813,4.184 4.459,6.633 -7.266,4.722 -14.715,6.898 -23.055,5.401 -7.332,-1.316 -12.539,-6.907 -13,-14.085 -0.539,-8.374 3.431,-14.462 11.185,-16.533 3.845,-1.026 7.859,-1.397 11.781,-2.146 3.49,-0.666 5.341,-2.687 5.647,-5.971 0.306,-3.284 -1.333,-6.312 -4.676,-7.054 -3.191,-0.707 -6.702,-1.165 -9.847,-0.556 -4.007,0.776 -7.787,2.736 -11.99,4.306 -1.451,-1.682 -3.25,-3.767 -5.217,-6.047 9.23,-7.402 19.207,-9.614 30.069,-6.128 2.907,0.933 5.928,3.08 7.765,5.532 7.186,9.586 0.77,23.429 -11.268,25.014 -3.4,0.448 -6.83,0.927 -10.126,1.834 -2.801,0.772 -4.606,2.895 -4.618,5.999 -0.011,2.981 1.375,5.392 4.168,6.382 2.035,0.721 4.431,1.279 6.482,0.901 C -8.273,2.752 -4.436,1.309 0,0 m -46.81,16.106 h 65.03 v -65.32 h -65.03 z" /></g><g
           transform="translate(122.3721,60.5884)"
           id="g40"><path
             id="path42"
             style="fill:#02666d;fill-opacity:1;fill-rule:nonzero;stroke:none"
             d="m 0,0 c -0.894,0.079 -1.616,0.199 -2.339,0.199 -10.047,0.004 -20.096,-0.068 -30.142,0.031 -2.225,0.023 -2.833,-0.668 -2.82,-2.878 0.09,-14.335 0.043,-28.672 0.044,-43.008 0,-2.437 -0.131,-4.887 0.106,-7.3 0.075,-0.773 1.131,-2.069 1.751,-2.077 10.604,-0.133 21.21,-0.121 31.815,-0.049 0.581,0.005 1.619,0.785 1.656,1.267 0.177,2.276 0.079,4.573 0.079,7.055 h -26.318 v 15.764 h 22.156 v 7.718 h -22.141 v 15.186 l 26.153,0 z m -50.151,4.208 h 64.964 v -65.226 h -64.964 z" /></g><g
           transform="translate(115.4326,133.6045)"
           id="g44"><path
             id="path46"
             style="fill:#789913;fill-opacity:1;fill-rule:nonzero;stroke:none"
             d="m 0,0 c 0,-1.698 0,-2.896 0,-4.094 -0.002,-10.87 0.037,-21.741 -0.025,-32.611 -0.028,-4.767 -2.811,-8.487 -7.012,-9.723 -7.695,-2.265 -13.97,2.216 -14.087,10.31 -0.14,9.744 0.045,19.492 -0.032,29.237 -0.065,8.16 0.851,6.498 -7.193,6.748 -1.742,0.054 -2.271,-0.825 -2.255,-2.406 0.119,-11.616 0.226,-23.233 0.319,-34.849 0.084,-10.496 6.807,-16.935 16.084,-18.58 10.166,-1.803 22.294,3.601 23.179,16.56 0.847,12.407 0.262,24.914 0.191,37.376 -0.003,0.68 -1.013,1.878 -1.64,1.939 C 5.161,0.139 2.757,0 0,0 m -10.475,4.498 c 9.861,0.003 19.722,-0.052 29.581,0.047 2.172,0.021 2.859,-0.604 2.849,-2.848 -0.093,-19.863 -0.108,-39.726 -0.033,-59.588 0.009,-2.42 -0.596,-3.175 -3.105,-3.161 -19.627,0.101 -39.255,0.086 -58.882,-0.011 -2.453,-0.013 -3.177,0.722 -3.167,3.182 0.077,19.863 0.069,39.726 -0.028,59.588 -0.011,2.333 0.829,2.838 2.926,2.822 9.952,-0.079 19.906,-0.036 29.859,-0.031" /></g><g
           transform="translate(80.312,152.0723)"
           id="g48"><path
             id="path50"
             style="fill:#931219;fill-opacity:1;fill-rule:nonzero;stroke:none"
             d="m 0,0 c 2.609,0 4.735,0.105 6.845,-0.033 1.717,-0.113 2.513,0.614 2.994,2.191 0.846,2.775 1.734,5.55 2.851,8.22 0.322,0.769 1.474,1.66 2.267,1.681 5.673,0.15 11.354,0.049 17.03,0.124 1.485,0.019 2.119,-0.588 2.523,-1.958 0.821,-2.781 1.734,-5.54 2.765,-8.247 0.281,-0.738 1.083,-1.745 1.712,-1.796 2.547,-0.205 5.12,-0.085 7.909,-0.085 -0.299,1.119 -0.436,1.85 -0.686,2.538 -6.122,16.889 -12.308,33.755 -18.33,50.679 -0.884,2.485 -2.575,1.963 -4.249,1.963 -1.873,0 -3.656,0.414 -4.605,-2.307 C 14.407,39.718 9.518,26.561 4.742,13.363 3.192,9.083 1.695,4.783 0,0 M 57.103,-6.21 H -8.106 v 65.301 h 65.209 z" /></g><g
           transform="translate(17.6904,109.7373)"
           id="g52"><path
             id="path54"
             style="fill:#789913;fill-opacity:1;fill-rule:nonzero;stroke:none"
             d="m 0,0 c 0.111,0.048 0.222,0.096 0.333,0.144 3.127,-7.269 6.225,-14.55 9.416,-21.79 0.415,-0.94 1.158,-2.103 2.016,-2.412 3.929,-1.419 6.704,-0.029 8.255,3.791 0.632,1.559 1.347,3.086 2.021,4.63 2.253,5.165 4.505,10.331 7.011,16.078 0,-9.229 -0.014,-17.754 0.005,-26.279 0.016,-7.019 -0.549,-5.735 5.965,-6.039 2.83,-0.132 3.35,0.99 3.332,3.563 -0.109,15.559 -0.026,31.118 -0.085,46.677 -0.023,6.039 0.849,5.154 -5.372,5.407 -2.468,0.1 -3.595,-0.818 -4.499,-3.062 C 25.605,13.772 22.571,6.934 19.621,0.062 18.1,-3.48 16.557,-7.013 14.814,-11.033 14.126,-9.709 13.701,-9 13.374,-8.247 9.353,1.005 5.345,10.264 1.335,19.521 c -1.941,4.48 -1.94,4.48 -6.726,4.384 -3.74,-0.075 -3.811,-0.075 -3.821,-4.03 -0.04,-15.652 -0.042,-31.305 -0.036,-46.958 10e-4,-4.72 0.034,-4.72 4.732,-4.748 4.706,-0.027 4.597,-0.008 4.544,4.873 C -0.069,-17.973 0,-8.986 0,0 m -17.865,-37.126 c -0.078,0.965 -0.16,1.51 -0.16,2.054 10e-4,20.156 0.022,40.313 -0.005,60.469 -0.002,1.799 0.095,2.999 2.454,2.991 20.292,-0.068 40.583,-0.034 60.874,-0.038 0.452,0 0.902,-0.098 1.626,-0.182 0.073,-1.05 0.201,-2.042 0.201,-3.033 0.012,-19.5 0.014,-39 0.004,-58.5 -0.002,-3.777 -0.028,-3.776 -3.873,-3.775 -19.36,0.006 -38.721,0.01 -58.082,0.014 z" /></g><g
           transform="translate(187.6309,42.1626)"
           id="g56"><path
             id="path58"
             style="fill:#000000;fill-opacity:1;fill-rule:nonzero;stroke:none"
             d="M 0,0 C -1.511,4.325 -2.941,8.42 -4.631,13.255 -6.428,8.348 -7.921,4.273 -9.486,0 Z m 54.001,11.896 c -3.492,-9.452 -6.978,-18.904 -10.49,-28.347 -0.236,-0.636 -0.673,-1.195 -1.017,-1.791 -0.455,0.581 -1.083,1.093 -1.341,1.751 C 37.441,-7.028 33.78,2.454 30.106,11.931 29.7,11.875 29.293,11.818 28.887,11.763 28.209,6.381 27.464,1.006 26.89,-4.387 c -0.217,-2.04 -0.077,-4.122 -0.033,-6.183 0.083,-3.962 0.985,-5.133 4.829,-6.506 0.484,-0.173 0.913,-0.505 1.28,-1.224 H -1.085 c -0.053,0.262 -0.105,0.524 -0.158,0.785 0.954,0.279 1.902,0.583 2.865,0.829 2.819,0.721 3.553,1.921 2.648,4.71 -0.896,2.76 -1.831,5.516 -2.958,8.183 -0.3,0.71 -1.36,1.527 -2.09,1.546 -3.145,0.081 -6.297,-0.117 -9.446,-0.214 -1.313,-3.485 -2.852,-6.912 -3.779,-10.499 -0.226,-0.875 1.444,-2.383 2.446,-3.394 0.616,-0.621 1.619,-0.852 2.254,-1.913 h -14.456 c 0.374,0.577 0.526,1.072 0.738,1.1 3.614,0.478 5.015,3.202 6.261,6.12 3.528,8.26 7.116,16.492 10.55,24.791 0.472,1.142 0.196,2.598 0.288,4.292 1.74,0.532 3.922,1.199 6.47,1.979 C 2.042,16 3.541,12.017 5.009,8.021 7.494,1.258 9.936,-5.521 12.444,-12.275 c 1.238,-3.333 3.724,-5.143 6.384,-4.801 2.402,0.308 4.159,2.504 4.664,5.949 1.098,7.506 2.175,15.016 3.239,22.527 0.54,3.812 -0.011,4.69 -3.592,6.048 -0.624,0.237 -1.211,0.575 -1.67,1.457 h 17.91 c 0.034,-0.263 0.088,-0.405 0.051,-0.435 -3.688,-3.058 -3.71,-3.067 -1.687,-7.833 2.19,-5.159 4.427,-10.299 6.676,-15.523 0.301,0.143 0.664,0.194 0.735,0.366 2.57,6.22 5.104,12.456 7.666,18.679 0.783,1.903 -0.05,2.789 -1.82,3.229 -0.724,0.179 -1.409,0.512 -2.112,0.776 0.048,0.236 0.095,0.472 0.143,0.708 h 19.514 c -0.932,-0.649 -1.334,-1.094 -1.826,-1.247 -3.75,-1.17 -4.648,-2.3 -4.27,-6.278 0.346,-3.635 0.907,-7.252 1.477,-10.862 0.643,-4.068 1.393,-8.12 2.114,-12.175 0.474,-2.669 1.606,-4.779 4.523,-5.414 0.497,-0.107 0.928,-0.524 2.055,-1.193 H 51.536 c -0.039,0.208 -0.079,0.416 -0.119,0.624 1.27,0.361 2.534,0.741 3.809,1.082 2.333,0.624 3.58,2.253 3.267,4.555 -1.084,7.97 -2.36,15.912 -3.562,23.864 -0.31,0.023 -0.62,0.045 -0.93,0.068" /></g><g
           transform="translate(389.0586,37.021)"
           id="g60"><path
             id="path62"
             style="fill:#000000;fill-opacity:1;fill-rule:nonzero;stroke:none"
             d="m 0,0 c 2.554,6.508 5.12,13.011 7.653,19.526 0.688,1.768 -0.198,2.624 -1.85,3 -0.75,0.171 -1.474,0.456 -2.209,0.691 0.037,0.246 0.074,0.493 0.111,0.74 h 18.921 c 0.067,-0.158 0.134,-0.316 0.201,-0.475 -0.662,-0.294 -1.299,-0.723 -1.992,-0.858 -2.855,-0.555 -4.036,-2.616 -3.685,-5.121 1.197,-8.524 2.444,-17.059 4.236,-25.467 0.418,-1.962 3.059,-3.441 4.637,-5.1 H 6.469 c -0.066,0.142 -0.13,0.285 -0.195,0.427 0.933,0.305 1.853,0.662 2.802,0.906 3.419,0.875 4.61,2.372 4.112,5.838 C 12.09,1.772 10.849,9.416 8.994,17.146 5.067,7.012 1.141,-3.124 -2.85,-13.424 c -4.168,10.197 -8.286,20.272 -12.405,30.346 -0.328,-0.097 -0.656,-0.193 -0.984,-0.29 -1.441,-7.878 -2.774,-15.802 -1.854,-23.841 0.177,-1.553 2.112,-2.987 3.422,-4.285 0.583,-0.577 1.628,-0.681 2.392,-1.567 h -15.394 c 0.166,0.29 0.254,0.658 0.416,0.695 4.391,1.008 5.295,4.431 5.813,8.245 0.983,7.239 1.953,14.484 3.176,21.684 0.494,2.907 -1.234,3.828 -3.186,4.802 -0.762,0.38 -1.595,0.614 -2.396,0.914 l 0.14,0.733 H -5.808 C -5.868,23.684 -5.841,23.41 -5.939,23.352 -9.682,21.127 -9.713,21.117 -8.013,17.096 -5.613,11.417 -3.164,5.758 -0.736,0.091 -0.491,0.061 -0.245,0.03 0,0" /></g><g
           transform="translate(43.9312,175.7842)"
           id="g64"><path
             id="path66"
             style="fill:#789913;fill-opacity:1;fill-rule:nonzero;stroke:none"
             d="m 0,0 c 1.233,1.36 2.449,2.736 3.704,4.076 1.047,1.117 1.093,2.043 0.189,3.442 -0.769,1.19 -0.706,2.891 -1.23,4.282 -0.793,2.104 -1.642,4.211 -2.721,6.174 -0.91,1.655 -1.954,3.38 -3.356,4.578 -1.536,1.313 -3.461,2.569 -5.381,2.913 -2.102,0.376 -4.434,-0.129 -6.592,-0.595 -2.72,-0.588 -5.327,-1.578 -8.177,-0.495 -0.604,0.229 -1.966,-0.144 -2.221,-0.636 -1.389,-2.684 -3.528,-5.52 -3.452,-8.247 0.058,-2.062 2.878,-4.234 4.805,-5.981 1.165,-1.057 2.337,-1.667 2.759,-3.497 0.245,-1.061 1.964,-2.234 3.205,-2.509 2.572,-0.571 5.268,-0.578 7.864,-0.812 -3.762,-6.283 -8.99,-8.419 -15.803,-6.22 -0.962,0.311 -2.342,1.186 -2.452,1.956 -0.351,2.458 -2.194,3.128 -3.819,4.36 -4.903,3.715 -4.988,5.002 -2.401,9.719 3.413,6.224 7.532,11.794 13.028,16.276 2.432,1.983 4.92,3.607 8.382,2.37 1.094,-0.391 2.541,0.131 3.809,0.34 2.555,0.421 5.084,1.145 7.652,1.316 3.229,0.214 5.606,-1.008 6.842,-4.474 0.609,-1.708 2.451,-2.96 3.693,-4.454 1.352,-1.626 2.381,-3.258 1.266,-5.588 C 9.299,17.679 9.942,16.402 10.458,15.635 13.424,11.228 13.156,8.965 9.146,5.561 7.513,4.174 5.978,2.659 4.273,1.37 3.141,0.514 1.786,-0.043 0.53,-0.734 Z" /></g><g
           transform="translate(692.2852,42.4741)"
           id="g68"><path
             id="path70"
             style="fill:#000000;fill-opacity:1;fill-rule:nonzero;stroke:none"
             d="m 0,0 c -0.714,3.14 -1.104,6.432 -2.228,9.448 -1.897,5.095 -5.759,7.994 -11.261,8.197 -5.326,0.194 -9.421,-2.082 -11.767,-6.962 -3.41,-7.093 -3.403,-14.324 0.01,-21.398 2.398,-4.973 6.66,-7.257 12.069,-6.948 5.473,0.312 9.247,3.383 11.101,8.467 C -1.035,-6.343 -0.702,-3.227 0,0 m -13.008,-19.841 c -8.864,0.354 -16.167,2.205 -20.541,9.886 -6.544,11.491 -0.467,25.851 12.287,28.859 6.573,1.551 13.118,1.392 19.289,-1.803 C 5.126,13.424 8.898,5.838 7.812,-2.368 6.662,-11.07 1.439,-17.084 -6.652,-18.861 c -2.349,-0.516 -4.76,-0.74 -6.356,-0.98" /></g><g
           transform="translate(461.4287,61.4604)"
           id="g72"><path
             id="path74"
             style="fill:#000000;fill-opacity:1;fill-rule:nonzero;stroke:none"
             d="m 0,0 c 4.327,0 8.657,0.078 12.979,-0.079 0.709,-0.025 1.49,-0.998 2.057,-1.685 6.717,-8.133 13.4,-16.297 20.097,-24.448 0.217,-0.265 0.493,-0.481 1.183,-1.144 0,3.435 0.076,6.362 -0.02,9.284 -0.104,3.18 -0.346,6.357 -0.566,9.533 -0.298,4.309 -1.399,5.605 -5.594,6.809 -0.464,0.132 -0.861,0.505 -1.192,1.287 h 15.691 c 0.071,-0.164 0.143,-0.328 0.216,-0.493 -0.634,-0.282 -1.247,-0.74 -1.904,-0.816 -2.681,-0.312 -3.996,-1.959 -4.119,-4.469 -0.233,-4.765 -0.33,-9.54 -0.38,-14.311 -0.06,-5.885 -0.014,-11.771 -0.014,-17.604 -2.288,-0.919 -3.471,-0.233 -4.854,1.532 -7.42,9.473 -15.042,18.788 -22.605,28.147 -0.145,0.178 -0.44,0.231 -0.871,0.445 0,-7.9 -0.108,-15.625 0.067,-23.343 0.054,-2.33 1.695,-3.86 4.06,-4.416 1.091,-0.256 2.153,-0.638 3.228,-0.963 -0.046,-0.258 -0.092,-0.516 -0.137,-0.774 H -0.192 c -0.049,0.259 -0.097,0.518 -0.146,0.777 0.968,0.296 1.916,0.716 2.905,0.869 2.899,0.444 4.67,2.109 4.748,5.001 0.224,8.235 0.413,16.481 0.174,24.71 C 7.454,-4.944 5.126,-3.646 3.664,-2.69 2.518,-1.941 1.071,-1.657 -0.241,-1.167 -0.161,-0.778 -0.08,-0.39 0,0" /></g><g
           transform="translate(609.3437,51.1889)"
           id="g76"><path
             id="path78"
             style="fill:#000000;fill-opacity:1;fill-rule:nonzero;stroke:none"
             d="m 0,0 h -0.018 c 0,-1.965 0.098,-3.936 -0.03,-5.892 -0.109,-1.686 0.695,-2.314 2.173,-2.629 3.916,-0.834 7.354,0.461 8.944,3.461 1.846,3.48 1.137,9.604 -1.424,11.823 C 7.084,8.98 3.967,8.887 1.267,7.682 0.316,7.258 0.324,4.511 0.027,2.802 -0.13,1.894 0,0.936 0,0 m -13.791,9.841 c 0.24,0.088 0.479,0.248 0.722,0.254 6.682,0.149 13.366,0.413 20.048,0.368 3.777,-0.025 7.331,-1.075 10.101,-3.985 4.928,-5.175 3.185,-13.546 -3.396,-16.241 -4.443,-1.818 -8.913,-1.27 -13.392,-0.133 0,-4.375 -0.239,-8.668 0.156,-12.901 0.109,-1.167 2.013,-2.296 3.281,-3.168 0.71,-0.49 1.802,-0.42 2.723,-0.601 -0.028,-0.245 -0.056,-0.489 -0.083,-0.734 h -20.152 c -0.049,0.203 -0.099,0.405 -0.149,0.608 0.794,0.2 1.578,0.484 2.383,0.586 2.403,0.303 3.807,1.692 3.822,4.057 0.061,8.885 0.04,17.771 -0.072,26.654 -0.027,2.216 -1.312,3.602 -3.645,3.859 -0.841,0.093 -1.656,0.422 -2.482,0.642 0.045,0.246 0.09,0.49 0.135,0.735" /></g><g
           transform="translate(323.0308,36.2173)"
           id="g80"><path
             id="path82"
             style="fill:#000000;fill-opacity:1;fill-rule:nonzero;stroke:none"
             d="m 0,0 c 0.156,-1.437 0.594,-2.438 0.271,-2.944 -4.266,-6.67 -10.243,-10.521 -18.268,-10.552 -7.811,-0.03 -14.319,2.684 -17.939,10.078 -3.348,6.839 -3.235,13.852 0.725,20.422 4.144,6.873 10.839,9.233 18.4,8.964 4.417,-0.157 8.802,-1.219 13.512,-1.92 V 9.997 L -3.867,9.786 c -0.295,0.733 -0.653,1.445 -0.873,2.199 -1.962,6.71 -6.958,11.203 -12.625,11.413 -3.962,0.147 -7.197,-1.318 -9.26,-4.677 -4.069,-6.625 -4.562,-13.762 -1.113,-20.644 4.61,-9.198 17.279,-10.032 24.62,-1.938 C -2.194,-2.843 -1.382,-1.721 0,0" /></g><g
           transform="translate(570.541,35.1138)"
           id="g84"><path
             id="path86"
             style="fill:#000000;fill-opacity:1;fill-rule:nonzero;stroke:none"
             d="m 0,0 c -0.125,-0.708 -0.072,-1.518 -0.403,-2.108 -6.412,-11.443 -23.623,-13.999 -32.846,-4.694 -5.925,5.979 -6.742,13.437 -4.283,21.157 2.206,6.93 7.4,10.777 14.385,12.272 6.511,1.393 12.725,-0.476 19.323,-1.627 V 11.1 c -0.184,-0.079 -0.367,-0.16 -0.551,-0.239 -0.326,0.798 -0.736,1.573 -0.963,2.399 -1.802,6.559 -7.269,11.243 -13.061,11.24 -3.97,-0.003 -7.067,-1.575 -9.03,-5.057 -3.757,-6.662 -4.158,-13.666 -0.762,-20.453 4.47,-8.934 17.227,-9.742 24.481,-1.818 0.974,1.063 1.88,2.19 2.816,3.288 z" /></g><g
           transform="translate(445.5508,61.0093)"
           id="g88"><path
             id="path90"
             style="fill:#000000;fill-opacity:1;fill-rule:nonzero;stroke:none"
             d="M 0,0 H 13.984 C 14.056,-0.16 14.128,-0.319 14.2,-0.479 13.655,-0.746 13.13,-1.183 12.563,-1.248 10.018,-1.543 9.083,-3.09 9.069,-5.475 9.034,-11.376 8.969,-17.276 8.945,-23.178 8.907,-32.51 3.847,-37.987 -5.398,-38.179 c -3.1,-0.063 -6.342,0.391 -9.303,1.311 -5.674,1.762 -8.482,6.092 -8.484,12.077 -0.002,5.714 0.024,11.429 0.009,17.143 -0.011,4.88 -0.387,5.325 -5.01,6.445 -0.461,0.112 -0.865,0.47 -1.195,1.221 h 19.847 c 0.056,-0.188 0.113,-0.374 0.17,-0.562 -0.947,-0.282 -1.877,-0.682 -2.844,-0.823 -2.24,-0.326 -3.266,-1.668 -3.278,-3.823 -0.041,-7.401 -0.299,-14.817 0.127,-22.192 0.118,-2.043 1.885,-4.644 3.66,-5.803 4.158,-2.715 8.886,-2.626 13.291,-0.303 4.027,2.124 5.043,5.917 4.929,10.242 -0.12,4.587 -0.012,9.181 -0.075,13.769 C 6.427,-8.083 6.24,-6.682 6.014,-5.303 5.622,-2.918 4.327,-1.415 1.805,-1.166 1.164,-1.104 0.542,-0.843 -0.088,-0.673 -0.059,-0.448 -0.029,-0.225 0,0" /></g><g
           transform="translate(527.9824,24.0317)"
           id="g92"><path
             id="path94"
             style="fill:#000000;fill-opacity:1;fill-rule:nonzero;stroke:none"
             d="m 0,0 h -20.221 c -0.055,0.185 -0.111,0.368 -0.167,0.553 0.849,0.258 1.684,0.597 2.551,0.758 2.586,0.479 3.81,1.885 3.78,4.64 -0.087,8.05 -0.017,16.101 -0.042,24.151 -0.011,3.768 -0.914,4.819 -4.647,5.739 -0.473,0.116 -0.898,0.43 -1.255,1.146 H 0.157 c 0.065,-0.164 0.129,-0.327 0.194,-0.491 -0.83,-0.28 -1.647,-0.749 -2.492,-0.807 -2.653,-0.182 -3.964,-1.833 -4.005,-4.186 -0.156,-8.888 -0.171,-17.78 -0.089,-26.67 0.02,-2.226 1.903,-3.04 3.781,-3.543 0.825,-0.222 1.678,-0.34 2.518,-0.505 z" /></g><g
           transform="translate(742.1885,61.0425)"
           id="g96"><path
             id="path98"
             style="fill:#000000;fill-opacity:1;fill-rule:nonzero;stroke:none"
             d="m 0,0 h 20.137 c 0.045,-0.252 0.09,-0.503 0.135,-0.754 -0.894,-0.222 -1.779,-0.505 -2.685,-0.652 -2.12,-0.346 -3.514,-1.582 -3.544,-3.695 -0.127,-8.988 -0.141,-17.977 -0.111,-26.966 0.006,-2.1 1.498,-3.101 3.361,-3.569 0.94,-0.236 1.898,-0.397 2.848,-0.593 l -0.065,-0.752 H -0.243 c -0.044,0.197 -0.087,0.394 -0.131,0.592 1.073,0.302 2.135,0.656 3.222,0.896 2.114,0.466 3.27,1.769 3.277,3.923 0.027,8.428 0.044,16.857 -0.034,25.285 -0.027,2.874 -1.366,4.802 -4.47,5.084 -0.59,0.055 -1.156,0.377 -1.732,0.575 C -0.074,-0.417 -0.037,-0.209 0,0" /></g><g
           transform="translate(632.5732,61.147)"
           id="g100"><path
             id="path102"
             style="fill:#000000;fill-opacity:1;fill-rule:nonzero;stroke:none"
             d="m 0,0 h 19.916 c 0.063,-0.223 0.125,-0.444 0.188,-0.666 -0.748,-0.251 -1.482,-0.654 -2.246,-0.724 -2.589,-0.232 -3.995,-1.78 -4.036,-4.193 -0.15,-8.896 -0.225,-17.797 -0.026,-26.689 0.025,-1.11 1.731,-2.369 2.908,-3.2 0.878,-0.62 2.158,-0.661 3.259,-0.96 -0.027,-0.234 -0.055,-0.468 -0.082,-0.702 H -0.335 c -0.047,0.217 -0.094,0.433 -0.141,0.65 0.886,0.25 1.759,0.591 2.663,0.729 2.391,0.367 3.721,1.744 3.731,4.142 0.036,8.43 0.057,16.862 -0.073,25.291 -0.04,2.619 -1.08,4.754 -4.217,4.939 -0.62,0.037 -1.218,0.447 -1.826,0.686 C -0.132,-0.465 -0.066,-0.232 0,0" /></g><g
           transform="translate(738.9883,23.9966)"
           id="g104"><path
             id="path106"
             style="fill:#000000;fill-opacity:1;fill-rule:nonzero;stroke:none"
             d="m 0,0 h -20.175 l -0.126,0.659 c 1.076,0.295 2.154,0.59 3.23,0.885 2.026,0.555 3.132,1.728 3.115,4.004 -0.06,8.424 0.005,16.848 -0.043,25.272 -0.017,3.045 -1.236,4.39 -4.167,5.008 -0.654,0.139 -1.289,0.369 -1.838,1.195 H 0.212 C 0.282,36.882 0.354,36.741 0.424,36.6 -0.389,36.289 -1.184,35.775 -2.016,35.704 -4.784,35.468 -6.066,33.746 -6.104,31.259 -6.234,22.557 -6.229,13.852 -6.185,5.147 -6.173,2.919 -4.52,1.94 -2.613,1.405 -1.763,1.167 -0.875,1.06 -0.004,0.893 -0.002,0.595 -0.001,0.298 0,0" /></g><g
           transform="translate(261.0044,61.147)"
           id="g108"><path
             id="path110"
             style="fill:#000000;fill-opacity:1;fill-rule:nonzero;stroke:none"
             d="m 0,0 h 20.143 c 0.06,-0.212 0.119,-0.425 0.179,-0.638 -0.847,-0.282 -1.678,-0.736 -2.544,-0.814 -2.472,-0.226 -3.854,-1.701 -3.894,-3.98 -0.158,-8.889 -0.189,-17.784 -0.111,-26.674 0.02,-2.294 1.765,-3.346 3.881,-3.735 0.815,-0.149 1.623,-0.335 2.434,-0.504 -0.035,-0.277 -0.069,-0.553 -0.104,-0.831 H -0.938 c 1.265,0.641 1.865,1.105 2.534,1.257 3.611,0.821 4.355,1.66 4.36,5.292 0.008,7.583 -0.002,15.166 -0.014,22.749 C 5.935,-2.95 5.633,-2.583 0.791,-1.214 0.43,-1.111 0.137,-0.768 -0.188,-0.536 -0.125,-0.357 -0.063,-0.179 0,0" /></g><g
           transform="translate(571.8525,23.9975)"
           id="g112"><path
             id="path114"
             style="fill:#000000;fill-opacity:1;fill-rule:nonzero;stroke:none"
             d="m 0,0 c 0.282,0.645 0.299,0.779 0.355,0.798 6.126,2.091 6.129,2.09 6.134,8.936 0.004,6.182 0.004,12.364 0.003,18.544 -0.002,5.621 -0.23,5.935 -5.392,7.701 -0.292,0.101 -0.508,0.427 -1.248,1.078 h 20.724 c 0.06,-0.193 0.119,-0.385 0.179,-0.577 -0.748,-0.257 -1.48,-0.657 -2.247,-0.746 C 15.86,35.428 14.435,33.981 14.411,31.324 14.331,22.616 14.282,13.908 14.29,5.201 14.292,2.973 15.793,1.908 17.775,1.417 18.699,1.187 19.629,0.985 20.557,0.771 L 20.448,0 Z" /></g><g
           transform="translate(345.3159,23.9712)"
           id="g116"><path
             id="path118"
             style="fill:#000000;fill-opacity:1;fill-rule:nonzero;stroke:none"
             d="m 0,0 h -20.268 c -0.038,0.244 -0.075,0.488 -0.113,0.731 0.818,0.213 1.624,0.514 2.455,0.623 2.641,0.344 4.054,1.884 4.07,4.489 0.046,8.051 0.129,16.105 -0.088,24.15 -0.118,4.378 -0.787,4.835 -5.04,5.944 -0.416,0.108 -0.789,0.383 -1.129,1.084 H 0.114 C 0.167,36.843 0.221,36.665 0.275,36.487 -0.412,36.25 -1.089,35.846 -1.787,35.805 -4.847,35.624 -6.042,33.728 -6.102,30.979 -6.235,24.897 -6.247,18.812 -6.298,12.729 -6.313,10.949 -6.302,9.171 -6.292,7.392 -6.268,2.946 -5.517,2.042 -1.228,1.163 -0.767,1.068 -0.348,0.771 0.091,0.566 0.061,0.378 0.03,0.188 0,0" /></g><g
           transform="translate(35.9097,148.1826)"
           id="g120"><path
             id="path122"
             style="fill:#a30d16;fill-opacity:1;fill-rule:nonzero;stroke:none"
             d="m 0,0 c 0,5.246 0.146,9.888 -0.054,14.516 -0.12,2.776 -0.592,5.575 -1.258,8.276 -0.501,2.031 -0.205,3.374 1.638,4.415 1.012,0.571 1.889,1.383 3.029,2.238 C 5.685,20.959 5.786,12.706 4.106,4.503 3.773,2.879 1.563,1.645 0,0" /></g><g
           transform="translate(46.5957,48.7309)"
           id="g124"><path
             id="path126"
             style="fill:#ffffff;fill-opacity:1;fill-rule:nonzero;stroke:none"
             d="m 0,0 c -4.436,1.309 -8.273,2.752 -12.241,3.482 -2.051,0.378 -4.447,-0.18 -6.482,-0.901 -2.793,-0.99 -4.179,-3.401 -4.168,-6.382 0.012,-3.104 1.817,-5.227 4.618,-5.999 3.296,-0.907 6.726,-1.386 10.126,-1.834 12.038,-1.585 18.454,-15.428 11.268,-25.014 -1.837,-2.452 -4.858,-4.599 -7.765,-5.532 -10.862,-3.486 -20.839,-1.274 -30.069,6.128 1.967,2.28 3.766,4.365 5.217,6.047 4.203,-1.57 7.983,-3.53 11.99,-4.306 3.145,-0.609 6.656,-0.151 9.847,0.556 3.343,0.742 4.982,3.77 4.676,7.054 -0.306,3.284 -2.157,5.305 -5.647,5.971 -3.922,0.749 -7.936,1.12 -11.781,2.146 -7.754,2.071 -11.724,8.159 -11.185,16.533 0.461,7.178 5.668,12.769 13,14.085 8.34,1.497 15.789,-0.679 23.055,-5.401 C 2.813,4.184 1.283,1.908 0,0" /></g><g
           transform="translate(122.3721,60.5884)"
           id="g128"><path
             id="path130"
             style="fill:#ffffff;fill-opacity:1;fill-rule:nonzero;stroke:none"
             d="m 0,0 v -8.092 h -26.153 v -15.186 h 22.141 v -7.718 H -26.168 V -46.76 H 0.15 c 0,-2.482 0.098,-4.779 -0.079,-7.055 -0.037,-0.482 -1.075,-1.262 -1.656,-1.267 -10.605,-0.072 -21.211,-0.084 -31.815,0.049 -0.62,0.008 -1.676,1.304 -1.751,2.077 -0.237,2.413 -0.106,4.863 -0.106,7.3 -0.001,14.336 0.046,28.673 -0.044,43.008 -0.013,2.21 0.595,2.901 2.82,2.878 C -22.435,0.131 -12.386,0.203 -2.339,0.199 -1.616,0.199 -0.894,0.079 0,0" /></g><g
           transform="translate(115.4326,133.6045)"
           id="g132"><path
             id="path134"
             style="fill:#ffffff;fill-opacity:1;fill-rule:nonzero;stroke:none"
             d="m 0,0 c 2.757,0 5.161,0.139 7.529,-0.093 0.627,-0.061 1.637,-1.259 1.64,-1.939 0.071,-12.462 0.656,-24.969 -0.191,-37.376 -0.885,-12.959 -13.013,-18.363 -23.179,-16.56 -9.277,1.645 -16,8.084 -16.084,18.58 -0.093,11.616 -0.2,23.233 -0.319,34.849 -0.016,1.581 0.513,2.46 2.255,2.406 8.044,-0.25 7.128,1.412 7.193,-6.748 0.077,-9.745 -0.108,-19.493 0.032,-29.237 0.117,-8.094 6.392,-12.575 14.087,-10.31 4.201,1.236 6.984,4.956 7.012,9.723 0.062,10.87 0.023,21.741 0.025,32.611 0,1.198 0,2.396 0,4.094" /></g><g
           transform="translate(96.1938,172.3579)"
           id="g136"><path
             id="path138"
             style="fill:#ffffff;fill-opacity:1;fill-rule:nonzero;stroke:none"
             d="M 0,0 H 15.249 C 12.725,7.691 10.316,15.033 7.907,22.374 7.702,22.343 7.497,22.312 7.292,22.281 4.887,14.932 2.481,7.583 0,0 m -15.882,-20.286 c 1.695,4.783 3.193,9.083 4.742,13.364 4.776,13.197 9.665,26.354 14.285,39.607 0.948,2.721 2.731,2.307 4.605,2.307 1.673,-10e-4 3.364,0.521 4.248,-1.964 6.022,-16.924 12.208,-33.79 18.33,-50.678 0.25,-0.689 0.387,-1.419 0.686,-2.538 -2.789,0 -5.362,-0.121 -7.909,0.084 -0.629,0.051 -1.431,1.058 -1.711,1.796 -1.032,2.707 -1.945,5.467 -2.766,8.247 -0.403,1.371 -1.038,1.978 -2.523,1.958 -5.676,-0.075 -11.356,0.026 -17.03,-0.124 -0.793,-0.021 -1.945,-0.911 -2.267,-1.681 -1.117,-2.67 -2.005,-5.445 -2.851,-8.219 -0.481,-1.578 -1.277,-2.304 -2.994,-2.192 -2.11,0.139 -4.235,0.033 -6.845,0.033" /></g><g
           transform="translate(17.6904,109.7373)"
           id="g140"><path
             id="path142"
             style="fill:#ffffff;fill-opacity:1;fill-rule:nonzero;stroke:none"
             d="m 0,0 c 0,-8.986 -0.069,-17.973 0.028,-26.958 0.053,-4.881 0.162,-4.9 -4.544,-4.873 -4.698,0.028 -4.731,0.028 -4.732,4.748 -0.006,15.653 -0.004,31.306 0.036,46.958 0.01,3.955 0.081,3.955 3.821,4.03 4.786,0.096 4.785,0.096 6.726,-4.384 4.01,-9.257 8.018,-18.516 12.039,-27.768 0.327,-0.753 0.752,-1.462 1.44,-2.786 1.743,4.02 3.286,7.553 4.807,11.095 2.95,6.872 5.984,13.71 8.777,20.646 0.904,2.244 2.031,3.162 4.499,3.062 6.221,-0.253 5.349,0.632 5.372,-5.407 0.059,-15.559 -0.024,-31.118 0.085,-46.677 0.018,-2.573 -0.502,-3.695 -3.332,-3.563 -6.514,0.304 -5.949,-0.98 -5.965,6.039 -0.019,8.525 -0.005,17.05 -0.005,26.279 -2.506,-5.747 -4.758,-10.913 -7.011,-16.078 -0.674,-1.544 -1.389,-3.071 -2.021,-4.63 -1.551,-3.82 -4.326,-5.21 -8.255,-3.791 -0.858,0.309 -1.601,1.472 -2.016,2.412 C 6.558,-14.406 3.46,-7.125 0.333,0.144 0.222,0.096 0.111,0.048 0,0" /></g><g
           transform="translate(96.1938,172.3579)"
           id="g144"><path
             id="path146"
             style="fill:#96121a;fill-opacity:1;fill-rule:nonzero;stroke:none"
             d="m 0,0 c 2.481,7.583 4.887,14.932 7.292,22.281 0.205,0.031 0.41,0.062 0.615,0.093 C 10.316,15.033 12.725,7.691 15.249,0 Z" /></g></g></g></g></svg>