<?xml version="1.0" encoding="UTF-8" standalone="no"?>
<!-- Created with Inkscape (http://www.inkscape.org/) -->

<svg
   version="1.1"
   id="svg1"
   width="93.333336"
   height="93.333336"
   viewBox="0 0 93.333336 93.333336"
   sodipodi:docname="upload_brbbcmtmorzx6fowstcweyinxt.pdf"
   xmlns:inkscape="http://www.inkscape.org/namespaces/inkscape"
   xmlns:sodipodi="http://sodipodi.sourceforge.net/DTD/sodipodi-0.dtd"
   xmlns="http://www.w3.org/2000/svg"
   xmlns:svg="http://www.w3.org/2000/svg">
  <defs
     id="defs1">
    <clipPath
       clipPathUnits="userSpaceOnUse"
       id="clipPath2">
      <path
         d="M 0,70 H 70 V 0 H 0 Z"
         transform="translate(-59.381801,-14.649901)"
         id="path2" />
    </clipPath>
    <clipPath
       clipPathUnits="userSpaceOnUse"
       id="clipPath4">
      <path
         d="M 0,70 H 70 V 0 H 0 Z"
         transform="translate(-55.867201,-21.2876)"
         id="path4" />
    </clipPath>
  </defs>
  <sodipodi:namedview
     id="namedview1"
     pagecolor="#ffffff"
     bordercolor="#000000"
     borderopacity="0.25"
     inkscape:showpageshadow="2"
     inkscape:pageopacity="0.0"
     inkscape:pagecheckerboard="0"
     inkscape:deskcolor="#d1d1d1">
    <inkscape:page
       x="0"
       y="0"
       inkscape:label="1"
       id="page1"
       width="93.333336"
       height="93.333336"
       margin="10.333333"
       bleed="0" />
  </sodipodi:namedview>
  <g
     id="layer-MC0"
     inkscape:groupmode="layer"
     inkscape:label="Livello 1">
    <path
       id="path1"
       d="m 0,0 -15.015,-5.004 v 32.636 c 0.117,-0.038 0.231,-0.076 0.356,-0.128 0.302,-0.125 0.535,-0.322 0.858,-0.594 0.472,-0.398 1.058,-0.893 1.956,-1.201 0.577,-0.196 1.138,-0.291 1.722,-0.291 0.813,0 1.516,0.189 2.136,0.356 0.508,0.137 0.987,0.266 1.511,0.289 0.624,0.022 1.164,0.172 1.597,0.292 0.212,0.058 0.45,0.124 0.575,0.135 0.067,-0.121 0.128,-0.504 0.169,-0.761 0.118,-0.731 0.28,-1.734 1.028,-2.59 1.037,-1.207 2.04,-1.61 3.315,-1.864 l 0.089,-0.018 c 0.281,-0.053 0.572,-0.1 0.869,-0.136 V 1.615 C 1.165,0.882 0.696,0.231 0,0 m -31.532,-0.332 -0.514,0.162 v 9.577 c 0.359,-0.317 0.761,-0.639 1.252,-0.928 0.204,-0.122 0.399,-0.273 0.605,-0.435 0.558,-0.439 1.324,-1.038 2.527,-1.108 0.195,-0.013 0.392,-0.02 0.587,-0.02 1.867,0 3.144,0.801 3.794,2.383 0.382,0.951 0.224,1.768 0.12,2.309 -0.039,0.196 -0.081,0.419 -0.06,0.491 l 0.014,0.044 c 0.026,0.034 0.157,0.136 0.252,0.211 0.405,0.319 1.082,0.853 1.411,1.903 0.447,1.401 0.449,2.62 0,4.068 -0.718,2.355 -2.38,3.036 -3.716,3.583 l -0.295,0.122 c -0.461,0.188 -0.935,0.281 -1.422,0.281 -0.658,0 -1.22,-0.166 -1.669,-0.301 -0.248,-0.074 -0.504,-0.15 -0.635,-0.15 -0.017,0.001 -0.032,0.006 -0.066,0.027 -0.246,0.159 -0.405,0.419 -0.69,0.903 -0.237,0.405 -0.534,0.908 -0.976,1.411 -0.369,0.42 -0.707,0.789 -1.033,1.132 v 20.564 c 0.184,0 0.364,-0.029 0.538,-0.088 l 14.279,-4.759 0.511,-0.171 v -3.887 c -0.428,0.136 -0.834,0.287 -1.245,0.451 -1.007,0.406 -2.05,0.825 -3.429,0.825 -0.309,0 -0.629,-0.021 -0.948,-0.066 -0.249,-0.035 -0.5,-0.052 -0.764,-0.067 -1.114,-0.067 -2.797,-0.17 -3.876,-2.1 -1.086,-1.97 -1.076,-4.243 0.023,-6.09 0.934,-1.535 2.24,-1.779 3.105,-1.942 0.215,-0.04 0.419,-0.078 0.611,-0.131 0.579,-0.16 1.151,-0.238 1.747,-0.238 0.484,0 0.914,0.05 1.33,0.096 0.384,0.044 0.747,0.086 1.141,0.086 0.073,0 0.148,-0.002 0.225,-0.004 0.212,-0.01 0.413,-0.013 0.61,-0.013 0.354,0 0.684,0.012 1.001,0.022 0.162,0.006 0.315,0.009 0.471,0.012 V -5.01 Z m -16.18,-4.785 c -0.167,-0.053 -0.34,-0.08 -0.514,-0.08 -0.364,0 -0.712,0.114 -1.006,0.33 -0.436,0.319 -0.697,0.833 -0.697,1.373 v 4.177 c 0.2,-0.025 0.402,-0.047 0.613,-0.047 1.014,0 1.879,0.354 2.642,1.082 1.07,1.017 1.155,2.313 1.22,3.259 0.032,0.477 0.062,0.928 0.201,1.277 0.152,0.383 0.287,0.766 0.416,1.136 0.41,1.171 0.63,1.699 1.013,1.856 0.152,0.061 0.219,0.061 0.256,0.061 0.153,0 0.422,-0.065 0.733,-0.14 0.125,-0.03 0.337,-0.233 0.561,-0.447 0.472,-0.451 1.117,-1.07 2.16,-1.307 l 0.309,-0.075 c 0.509,-0.125 1.085,-0.267 1.696,-0.267 1.12,0 2.081,0.491 2.78,1.418 0.608,0.793 0.636,1.682 0.655,2.271 0.002,0.046 0.004,0.099 0.005,0.154 0.048,-0.003 0.096,-0.007 0.145,-0.011 0.156,-0.011 0.317,-0.021 0.485,-0.027 0.101,-0.004 0.195,-0.022 0.29,-0.058 V -0.707 Z m -1.102,44.948 15.065,5.55 V 26.95 c -0.598,0.5 -1.23,0.968 -1.991,1.479 -0.921,0.618 -1.719,0.899 -2.423,1.148 -0.712,0.25 -1.225,0.431 -1.829,0.938 -0.255,0.214 -0.456,0.517 -0.691,0.87 -0.431,0.65 -0.968,1.46 -2.029,1.977 -0.562,0.282 -1.169,0.429 -1.787,0.429 -0.768,0 -1.407,-0.219 -1.97,-0.412 -0.415,-0.142 -0.775,-0.266 -1.136,-0.285 l -0.687,-0.039 c -0.625,-0.034 -1.127,-0.061 -1.637,-0.064 v 5.242 c 0,0.71 0.448,1.352 1.115,1.598 m -1.115,-8.543 c 0.745,0.005 1.467,0.056 2.418,0.104 1.188,0.066 2.039,0.695 3.013,0.695 0.328,0 0.668,-0.07 1.04,-0.257 1.139,-0.555 1.351,-1.765 2.372,-2.62 1.541,-1.293 2.765,-1.101 4.397,-2.195 1.215,-0.816 2.059,-1.497 2.94,-2.372 V 12.542 c -0.081,0.011 -0.153,0.033 -0.238,0.037 -0.317,0.009 -0.605,0.047 -0.873,0.047 -0.413,0 -0.785,-0.087 -1.156,-0.491 -0.641,-0.691 -0.089,-1.862 -0.672,-2.621 -0.425,-0.564 -0.901,-0.74 -1.419,-0.74 -0.504,0 -1.049,0.165 -1.627,0.301 -1.162,0.265 -1.545,1.469 -2.702,1.75 -0.433,0.105 -0.78,0.188 -1.131,0.188 -0.281,0 -0.563,-0.053 -0.898,-0.188 -1.437,-0.585 -1.677,-2.204 -2.372,-3.942 -0.569,-1.44 -0.005,-2.972 -1.012,-3.931 -0.49,-0.468 -0.959,-0.611 -1.466,-0.611 -0.197,0 -0.402,0.021 -0.613,0.054 V 31.288 Z M -24.856,9.946 c -0.452,-1.098 -1.285,-1.327 -2.219,-1.327 -0.16,0 -0.323,0.007 -0.487,0.017 -1.003,0.058 -1.455,0.772 -2.368,1.31 -0.869,0.513 -1.469,1.215 -2.115,1.768 v 11.053 c 0.636,-0.859 0.886,-1.735 1.772,-2.309 0.344,-0.223 0.672,-0.301 0.992,-0.301 0.767,0 1.494,0.45 2.304,0.45 0.247,0 0.501,-0.042 0.766,-0.149 1.36,-0.568 2.516,-0.919 3.04,-2.639 0.343,-1.107 0.353,-1.955 0,-3.054 -0.348,-1.112 -1.365,-1.053 -1.685,-2.188 -0.286,-0.969 0.366,-1.718 0,-2.631 m 8.138,19.589 c -0.462,-0.009 -0.937,-0.034 -1.472,-0.034 -0.174,0 -0.353,0.003 -0.54,0.011 -0.1,0.004 -0.199,0.006 -0.295,0.006 -0.943,0 -1.664,-0.182 -2.471,-0.182 -0.398,0 -0.815,0.045 -1.292,0.176 -1.098,0.305 -2.01,0.16 -2.707,1.304 -0.808,1.359 -0.767,2.997 0,4.388 0.804,1.439 2.016,1.112 3.385,1.311 0.253,0.033 0.49,0.049 0.718,0.049 1.701,0 2.822,-0.874 4.673,-1.355 v -5.674 z m 4.852,11.181 c 0.095,-0.25 0.124,-0.5 0.161,-0.817 0.064,-0.553 0.153,-1.313 0.66,-2.11 0.514,-0.785 1.19,-1.078 1.595,-1.234 0.012,-0.45 -0.426,-0.99 -0.808,-1.283 -0.103,0.015 -0.289,0.061 -0.43,0.096 -0.301,0.077 -0.676,0.171 -1.115,0.215 -0.982,0.094 -1.669,0.339 -2.537,0.649 -0.209,0.076 -0.442,0.156 -0.676,0.235 v 4.941 l 3.374,1.066 c -0.088,-0.195 -0.179,-0.394 -0.254,-0.625 -0.12,-0.37 -0.109,-0.77 0.03,-1.133 m 10.813,5.101 c 0.166,0.053 0.339,0.079 0.514,0.079 0.362,0 0.72,-0.117 1.009,-0.329 0.434,-0.319 0.695,-0.833 0.695,-1.373 V 22.832 c -0.199,0.03 -0.406,0.07 -0.623,0.112 -0.994,0.199 -1.617,0.444 -2.367,1.316 -0.886,1.012 -0.371,2.649 -1.347,3.504 -0.377,0.321 -0.737,0.429 -1.101,0.429 -0.703,10e-4 -1.416,-0.399 -2.279,-0.429 -1.419,-0.063 -2.394,-0.644 -3.571,-0.644 -0.364,0 -0.747,0.054 -1.169,0.198 -1.143,0.392 -1.58,1.287 -2.706,1.756 -0.362,0.153 -0.694,0.247 -1.016,0.318 v 5.273 c 0.959,-0.342 1.814,-0.658 3.044,-0.777 0.674,-0.067 1.218,-0.324 1.763,-0.324 0.307,0 0.614,0.082 0.943,0.324 1.022,0.761 1.899,2.148 1.357,3.498 -0.353,0.89 -1.202,0.556 -1.699,1.316 -0.534,0.838 -0.281,1.604 -0.668,2.621 0.241,0.746 0.653,1.271 0.881,1.861 z m 2.528,1.125 c -0.591,0.433 -1.299,0.657 -2.015,0.657 -0.343,0 -0.689,-0.052 -1.023,-0.157 l -15.126,-4.777 -14.281,4.76 c -0.349,0.117 -0.712,0.175 -1.077,0.175 -0.398,0 -0.798,-0.07 -1.177,-0.21 l -16.179,-5.961 c -1.339,-0.493 -2.229,-1.769 -2.229,-3.196 V -3.494 c 0,-1.084 0.517,-2.106 1.393,-2.747 0.592,-0.433 1.298,-0.659 2.013,-0.659 0.345,0 0.691,0.053 1.026,0.159 l 15.154,4.785 15.154,-4.785 c 0.334,-0.106 0.679,-0.159 1.025,-0.159 0.364,0 0.728,0.058 1.078,0.174 l 15.328,5.11 c 1.391,0.464 2.329,1.765 2.329,3.231 v 42.579 c 0,1.085 -0.516,2.106 -1.393,2.748"
       style="fill:#0b4e3d;fill-opacity:1;fill-rule:nonzero;stroke:none"
       transform="matrix(1.3333333,0,0,-1.3333333,79.175733,73.800133)"
       clip-path="url(#clipPath2)" />
    <path
       id="path3"
       d="m 0,0 c -0.52,-0.389 -1.43,-0.64 -2.316,-0.64 -0.784,0 -1.297,0.198 -1.463,0.395 -0.029,0.035 -0.079,0.095 -0.047,0.272 0.032,0.17 0.163,0.257 0.741,0.488 0.609,0.244 1.442,0.577 1.794,1.517 0.506,1.322 -0.544,2.434 -1.311,3.246 -0.202,0.215 -0.485,0.515 -0.626,0.718 0.448,0.236 0.958,0.082 1.75,-0.161 C -0.08,5.395 0.715,4.484 0.952,3.047 1.192,1.629 0.896,0.687 0,0 m -1.021,7.478 c -0.577,0.176 -1.122,0.343 -1.711,0.343 -0.555,0 -1.057,-0.15 -1.537,-0.463 C -4.807,7.004 -4.962,6.565 -4.997,6.261 -5.092,5.439 -4.483,4.794 -3.839,4.111 -3.407,3.654 -2.757,2.965 -2.883,2.637 -2.965,2.419 -3.212,2.3 -3.717,2.098 -4.345,1.846 -5.295,1.467 -5.5,0.334 c -0.115,-0.628 0.027,-1.205 0.413,-1.669 0.542,-0.649 1.525,-1.007 2.771,-1.007 1.268,0 2.515,0.366 3.344,0.985 1.408,1.079 1.948,2.656 1.605,4.685 -0.343,2.07 -1.588,3.499 -3.654,4.15"
       style="fill:#0b4e3d;fill-opacity:1;fill-rule:nonzero;stroke:none"
       transform="matrix(1.3333333,0,0,-1.3333333,74.4896,64.949867)"
       clip-path="url(#clipPath4)" />
  </g>
</svg>
